<svg width="31" height="32" viewBox="0 0 31 32" fill="none" xmlns="http://www.w3.org/2000/svg">
<path d="M21.1384 8.78461C18.6972 8.78461 17.6654 9.94953 15.9653 9.94953C14.2221 9.94953 12.8925 8.79308 10.777 8.79308C8.70632 8.79308 6.49818 10.0573 5.09591 12.211C3.12693 15.248 3.46114 20.9678 6.65015 25.8407C7.79085 27.585 9.31421 29.5413 11.3123 29.5625H11.3486C13.0851 29.5625 13.6009 28.4254 15.9907 28.4121H16.027C18.3811 28.4121 18.8534 29.5558 20.5826 29.5558H20.6189C22.617 29.5346 24.2221 27.367 25.3628 25.6294C26.1838 24.3797 26.4889 23.7524 27.1186 22.3386C22.5056 20.5876 21.7645 14.0479 26.3267 11.5407C24.9341 9.79695 22.9772 8.78703 21.1324 8.78703L21.1384 8.78461Z" fill="white"/>
<path d="M20.6008 2.43903C19.1477 2.53772 17.4524 3.46287 16.4594 4.67078C15.5585 5.76547 14.8174 7.38934 15.108 8.96416H15.2243C16.7719 8.96416 18.3558 8.03235 19.2809 6.83836C20.1722 5.7019 20.8479 4.09135 20.6008 2.43903Z" fill="white"/>
</svg>
