<svg width="16" height="16" viewBox="0 0 16 16" fill="none" xmlns="http://www.w3.org/2000/svg">
<path d="M1.43756 11.5152C1.43756 11.9503 1.61041 12.3676 1.91809 12.6753C2.22577 12.983 2.64306 13.1558 3.07819 13.1558H12.9219C13.3571 13.1558 13.7744 12.983 14.082 12.6753C14.3897 12.3676 14.5626 11.9503 14.5626 11.5152V7.00348H1.43756V11.5152ZM3.37115 9.28863C3.37115 9.05553 3.46375 8.83198 3.62858 8.66715C3.79341 8.50233 4.01696 8.40973 4.25006 8.40973H5.65631C5.88941 8.40973 6.11296 8.50233 6.27779 8.66715C6.44262 8.83198 6.53522 9.05553 6.53522 9.28863V9.87457C6.53522 10.1077 6.44262 10.3312 6.27779 10.4961C6.11296 10.6609 5.88941 10.7535 5.65631 10.7535H4.25006C4.01696 10.7535 3.79341 10.6609 3.62858 10.4961C3.46375 10.3312 3.37115 10.1077 3.37115 9.87457V9.28863Z" fill="#0075FF"/>
<path d="M12.9219 2.84296H3.07819C2.64306 2.84296 2.22577 3.01581 1.91809 3.32348C1.61041 3.63116 1.43756 4.04846 1.43756 4.48358V5.2453H14.5626V4.48358C14.5626 4.04846 14.3897 3.63116 14.082 3.32348C13.7744 3.01581 13.3571 2.84296 12.9219 2.84296V2.84296Z" fill="#0075FF"/>
</svg>
