<svg width="15" height="15" viewBox="0 0 15 15" fill="none" xmlns="http://www.w3.org/2000/svg">
<path d="M12.1874 2.34316H2.81238C2.03573 2.34316 1.40613 2.97276 1.40613 3.74941V12.1869C1.40613 12.9636 2.03573 13.5932 2.81238 13.5932H12.1874C12.964 13.5932 13.5936 12.9636 13.5936 12.1869V3.74941C13.5936 2.97276 12.964 2.34316 12.1874 2.34316Z" fill="white" stroke="#2D3748" stroke-width="0.75" stroke-linejoin="round"/>
<path d="M11.6548 2.34316H3.34499C2.27595 2.34316 1.40613 3.22646 1.40613 4.31191V6.09316H1.87488C1.87488 5.62441 2.34363 5.15566 2.81238 5.15566H12.1874C12.6561 5.15566 13.1249 5.62441 13.1249 6.09316H13.5936V4.31191C13.5936 3.22646 12.7238 2.34316 11.6548 2.34316Z" fill="#2D3748"/>
<path d="M8.67175 7.49938C9.06008 7.49938 9.37488 7.18458 9.37488 6.79626C9.37488 6.40793 9.06008 6.09313 8.67175 6.09313C8.28343 6.09313 7.96863 6.40793 7.96863 6.79626C7.96863 7.18458 8.28343 7.49938 8.67175 7.49938Z" fill="#2D3748"/>
<path d="M11.0155 7.49938C11.4038 7.49938 11.7186 7.18458 11.7186 6.79626C11.7186 6.40793 11.4038 6.09313 11.0155 6.09313C10.6272 6.09313 10.3124 6.40793 10.3124 6.79626C10.3124 7.18458 10.6272 7.49938 11.0155 7.49938Z" fill="#2D3748"/>
<path d="M8.67175 9.8427C9.06008 9.8427 9.37488 9.5279 9.37488 9.13957C9.37488 8.75125 9.06008 8.43645 8.67175 8.43645C8.28343 8.43645 7.96863 8.75125 7.96863 9.13957C7.96863 9.5279 8.28343 9.8427 8.67175 9.8427Z" fill="#2D3748"/>
<path d="M11.0155 9.8427C11.4038 9.8427 11.7186 9.5279 11.7186 9.13957C11.7186 8.75125 11.4038 8.43645 11.0155 8.43645C10.6272 8.43645 10.3124 8.75125 10.3124 9.13957C10.3124 9.5279 10.6272 9.8427 11.0155 9.8427Z" fill="#2D3748"/>
<path d="M3.98425 9.8427C4.37258 9.8427 4.68738 9.5279 4.68738 9.13957C4.68738 8.75125 4.37258 8.43645 3.98425 8.43645C3.59593 8.43645 3.28113 8.75125 3.28113 9.13957C3.28113 9.5279 3.59593 9.8427 3.98425 9.8427Z" fill="#2D3748"/>
<path d="M6.328 9.8427C6.71633 9.8427 7.03113 9.5279 7.03113 9.13957C7.03113 8.75125 6.71633 8.43645 6.328 8.43645C5.93968 8.43645 5.62488 8.75125 5.62488 9.13957C5.62488 9.5279 5.93968 9.8427 6.328 9.8427Z" fill="#2D3748"/>
<path d="M3.98425 12.1869C4.37258 12.1869 4.68738 11.8721 4.68738 11.4838C4.68738 11.0955 4.37258 10.7807 3.98425 10.7807C3.59593 10.7807 3.28113 11.0955 3.28113 11.4838C3.28113 11.8721 3.59593 12.1869 3.98425 12.1869Z" fill="#2D3748"/>
<path d="M6.328 12.1869C6.71633 12.1869 7.03113 11.8721 7.03113 11.4838C7.03113 11.0955 6.71633 10.7807 6.328 10.7807C5.93968 10.7807 5.62488 11.0955 5.62488 11.4838C5.62488 11.8721 5.93968 12.1869 6.328 12.1869Z" fill="#2D3748"/>
<path d="M8.67175 12.1869C9.06008 12.1869 9.37488 11.8721 9.37488 11.4838C9.37488 11.0955 9.06008 10.7807 8.67175 10.7807C8.28343 10.7807 7.96863 11.0955 7.96863 11.4838C7.96863 11.8721 8.28343 12.1869 8.67175 12.1869Z" fill="#2D3748"/>
<path d="M3.74982 1.40559V2.34309" stroke="#2D3748" stroke-width="0.75" stroke-linecap="round" stroke-linejoin="round"/>
<path d="M11.2499 1.40559V2.34309" stroke="#2D3748" stroke-width="0.75" stroke-linecap="round" stroke-linejoin="round"/>
</svg>
