<svg width="16" height="16" viewBox="0 0 16 16" fill="none" xmlns="http://www.w3.org/2000/svg">
<g clip-path="url(#clip0_1_663)">
<path d="M3.547 15.0316H2.6095C2.42302 15.0316 2.24417 14.9575 2.11231 14.8257C1.98045 14.6938 1.90637 14.515 1.90637 14.3285V10.1097C1.90637 9.92326 1.98045 9.74442 2.11231 9.61256C2.24417 9.4807 2.42302 9.40662 2.6095 9.40662H3.547C3.73348 9.40662 3.91232 9.4807 4.04418 9.61256C4.17604 9.74442 4.25012 9.92326 4.25012 10.1097V14.3285C4.25012 14.515 4.17604 14.6938 4.04418 14.8257C3.91232 14.9575 3.73348 15.0316 3.547 15.0316V15.0316Z" fill="#0075FF"/>
<path d="M10.1095 15.0308H9.172C8.98552 15.0308 8.80667 14.9567 8.67481 14.8249C8.54295 14.693 8.46887 14.5142 8.46887 14.3277V7.29645C8.46887 7.10997 8.54295 6.93112 8.67481 6.79926C8.80667 6.6674 8.98552 6.59332 9.172 6.59332H10.1095C10.296 6.59332 10.4748 6.6674 10.6067 6.79926C10.7385 6.93112 10.8126 7.10997 10.8126 7.29645V14.3277C10.8126 14.5142 10.7385 14.693 10.6067 14.8249C10.4748 14.9567 10.296 15.0308 10.1095 15.0308V15.0308Z" fill="#0075FF"/>
<path d="M13.3907 15.0311H12.4532C12.2668 15.0311 12.0879 14.957 11.9561 14.8252C11.8242 14.6933 11.7501 14.5145 11.7501 14.328V4.0155C11.7501 3.82902 11.8242 3.65018 11.9561 3.51832C12.0879 3.38646 12.2668 3.31238 12.4532 3.31238H13.3907C13.5772 3.31238 13.7561 3.38646 13.8879 3.51832C14.0198 3.65018 14.0939 3.82902 14.0939 4.0155V14.328C14.0939 14.5145 14.0198 14.6933 13.8879 14.8252C13.7561 14.957 13.5772 15.0311 13.3907 15.0311V15.0311Z" fill="#0075FF"/>
<path d="M6.82825 15.031H5.89075C5.70427 15.031 5.52542 14.9569 5.39356 14.8251C5.2617 14.6932 5.18762 14.5144 5.18762 14.3279V1.67163C5.18762 1.48515 5.2617 1.30631 5.39356 1.17445C5.52542 1.04258 5.70427 0.968506 5.89075 0.968506H6.82825C7.01473 0.968506 7.19357 1.04258 7.32543 1.17445C7.45729 1.30631 7.53137 1.48515 7.53137 1.67163V14.3279C7.53137 14.5144 7.45729 14.6932 7.32543 14.8251C7.19357 14.9569 7.01473 15.031 6.82825 15.031V15.031Z" fill="#0075FF"/>
</g>
<defs>
<clipPath id="clip0_1_663">
<rect width="15" height="15" fill="white" transform="translate(0.500122 0.5)"/>
</clipPath>
</defs>
</svg>
