<svg width="9" height="12" viewBox="0 0 9 12" fill="none" xmlns="http://www.w3.org/2000/svg">
<path d="M0.75 10.375C0.75 11.0625 1.3125 11.625 2 11.625H7C7.6875 11.625 8.25 11.0625 8.25 10.375V4.125C8.25 3.4375 7.6875 2.875 7 2.875H2C1.3125 2.875 0.75 3.4375 0.75 4.125V10.375ZM8.25 1H6.6875L6.24375 0.55625C6.13125 0.44375 5.96875 0.375 5.80625 0.375H3.19375C3.03125 0.375 2.86875 0.44375 2.75625 0.55625L2.3125 1H0.75C0.40625 1 0.125 1.28125 0.125 1.625C0.125 1.96875 0.40625 2.25 0.75 2.25H8.25C8.59375 2.25 8.875 1.96875 8.875 1.625C8.875 1.28125 8.59375 1 8.25 1Z" fill="#F53C2B"/>
</svg>
