<svg width="11" height="15" viewBox="0 0 11 15" fill="none" xmlns="http://www.w3.org/2000/svg">
<path d="M10.5392 6.56262H6.43765C6.06469 6.56262 5.70701 6.41446 5.44328 6.15074C5.17956 5.88702 5.0314 5.52933 5.0314 5.15637V1.05481C5.0314 1.02373 5.01906 0.993922 4.99708 0.971946C4.9751 0.949969 4.94529 0.937622 4.91421 0.937622H2.2189C1.72162 0.937622 1.24471 1.13517 0.893077 1.4868C0.541447 1.83843 0.343903 2.31534 0.343903 2.81262V12.1876C0.343903 12.6849 0.541447 13.1618 0.893077 13.5134C1.24471 13.8651 1.72162 14.0626 2.2189 14.0626H8.7814C9.27868 14.0626 9.7556 13.8651 10.1072 13.5134C10.4589 13.1618 10.6564 12.6849 10.6564 12.1876V6.67981C10.6564 6.64873 10.6441 6.61892 10.6221 6.59694C10.6001 6.57497 10.5703 6.56262 10.5392 6.56262ZM7.8439 11.2501H3.1564C3.03208 11.2501 2.91285 11.2007 2.82495 11.1128C2.73704 11.0249 2.68765 10.9057 2.68765 10.7814C2.68765 10.657 2.73704 10.5378 2.82495 10.4499C2.91285 10.362 3.03208 10.3126 3.1564 10.3126H7.8439C7.96822 10.3126 8.08745 10.362 8.17536 10.4499C8.26327 10.5378 8.31265 10.657 8.31265 10.7814C8.31265 10.9057 8.26327 11.0249 8.17536 11.1128C8.08745 11.2007 7.96822 11.2501 7.8439 11.2501ZM7.8439 8.90637H3.1564C3.03208 8.90637 2.91285 8.85698 2.82495 8.76908C2.73704 8.68117 2.68765 8.56194 2.68765 8.43762C2.68765 8.3133 2.73704 8.19407 2.82495 8.10616C2.91285 8.01826 3.03208 7.96887 3.1564 7.96887H7.8439C7.96822 7.96887 8.08745 8.01826 8.17536 8.10616C8.26327 8.19407 8.31265 8.3133 8.31265 8.43762C8.31265 8.56194 8.26327 8.68117 8.17536 8.76908C8.08745 8.85698 7.96822 8.90637 7.8439 8.90637Z" fill="white"/>
</svg>
