<svg width="5" height="15" viewBox="0 0 5 15" fill="none" xmlns="http://www.w3.org/2000/svg">
<path d="M2.49967 4.16665C3.41634 4.16665 4.16634 3.41665 4.16634 2.49998C4.16634 1.58331 3.41634 0.833313 2.49967 0.833313C1.58301 0.833313 0.833008 1.58331 0.833008 2.49998C0.833008 3.41665 1.58301 4.16665 2.49967 4.16665ZM2.49967 5.83331C1.58301 5.83331 0.833008 6.58331 0.833008 7.49998C0.833008 8.41665 1.58301 9.16665 2.49967 9.16665C3.41634 9.16665 4.16634 8.41665 4.16634 7.49998C4.16634 6.58331 3.41634 5.83331 2.49967 5.83331ZM2.49967 10.8333C1.58301 10.8333 0.833008 11.5833 0.833008 12.5C0.833008 13.4166 1.58301 14.1666 2.49967 14.1666C3.41634 14.1666 4.16634 13.4166 4.16634 12.5C4.16634 11.5833 3.41634 10.8333 2.49967 10.8333Z" fill="#A0AEC0"/>
</svg>
