<svg width="21" height="21" viewBox="0 0 21 21" fill="none" xmlns="http://www.w3.org/2000/svg">
<g clip-path="url(#clip0_1_302)">
<path fill-rule="evenodd" clip-rule="evenodd" d="M7.83272 -0.000732422C6.72714 0.00010346 5.83239 0.917902 5.83321 2.04885C5.83239 3.1798 6.72796 4.0976 7.83353 4.09843H9.83386V2.04969C9.83468 0.918738 8.93911 0.000939342 7.83272 -0.000732422C7.83353 -0.000732422 7.83353 -0.000732422 7.83272 -0.000732422V-0.000732422ZM7.83272 5.46593H2.50015C1.39457 5.46677 0.499002 6.38457 0.499819 7.51552C0.498185 8.64646 1.39376 9.56426 2.49933 9.56593H7.83272C8.93829 9.5651 9.83386 8.6473 9.83304 7.51635C9.83386 6.38457 8.93829 5.46677 7.83272 5.46593V5.46593Z" fill="#36C5F0"/>
<path fill-rule="evenodd" clip-rule="evenodd" d="M20.5001 7.51625C20.5009 6.3853 19.6053 5.4675 18.4997 5.46667C17.3941 5.4675 16.4986 6.3853 16.4994 7.51625V9.56667H18.4997C19.6053 9.56583 20.5009 8.64803 20.5001 7.51625ZM15.1667 7.51625V2.04958C15.1675 0.91947 14.2727 0.00167176 13.1671 0C12.0616 0.000835882 11.166 0.918634 11.1668 2.04958V7.51625C11.1652 8.6472 12.0607 9.56499 13.1663 9.56667C14.2719 9.56583 15.1675 8.64803 15.1667 7.51625Z" fill="#2EB67D"/>
<path fill-rule="evenodd" clip-rule="evenodd" d="M13.1664 20.5C14.272 20.4992 15.1675 19.5814 15.1667 18.4504C15.1675 17.3195 14.272 16.4017 13.1664 16.4008H11.1661V18.4504C11.1653 19.5805 12.0608 20.4983 13.1664 20.5ZM13.1664 15.0325H18.4998C19.6054 15.0317 20.5009 14.1139 20.5001 12.9829C20.5018 11.852 19.6062 10.9342 18.5006 10.9325H13.1672C12.0616 10.9333 11.1661 11.8511 11.1669 12.9821C11.1661 14.1139 12.0608 15.0317 13.1664 15.0325V15.0325Z" fill="#ECB22E"/>
<path fill-rule="evenodd" clip-rule="evenodd" d="M0.500123 12.9829C0.499306 14.1139 1.39488 15.0317 2.50045 15.0325C3.60602 15.0317 4.50159 14.1139 4.50078 12.9829V10.9333H2.50045C1.39488 10.9342 0.499306 11.852 0.500123 12.9829ZM5.83351 12.9829V18.4496C5.83188 19.5806 6.72745 20.4984 7.83302 20.5C8.93859 20.4992 9.83416 19.5814 9.83335 18.4504V12.9846C9.83498 11.8537 8.93941 10.9359 7.83384 10.9342C6.72745 10.9342 5.83269 11.852 5.83351 12.9829C5.83351 12.9838 5.83351 12.9829 5.83351 12.9829Z" fill="#E01E5A"/>
</g>
<defs>
<clipPath id="clip0_1_302">
<rect x="0.500061" y="-0.000732422" width="20" height="20.5" fill="white"/>
</clipPath>
</defs>
</svg>
