<svg width="21" height="20" viewBox="0 0 21 20" fill="none" xmlns="http://www.w3.org/2000/svg">
<g clip-path="url(#clip0_1_350)">
<path d="M4.04173 0.5H16.9584C18.9167 0.5 20.5001 2.08333 20.5001 4.04167V16.4583C20.5001 18.4167 18.9167 20 16.9584 20H4.04173C2.08339 20 0.500061 18.4167 0.500061 16.4583V4.04167C0.500061 2.08333 2.08339 0.5 4.04173 0.5Z" fill="#470137"/>
<path d="M11.0167 5.625L8.51666 9.75L11.1833 14.125C11.2 14.1583 11.2083 14.1917 11.2 14.225C11.1917 14.2583 11.1583 14.2333 11.1083 14.2417H9.19999C9.06666 14.2417 8.97499 14.2333 8.91666 14.15C8.74166 13.8 8.55833 13.4583 8.38333 13.1083C8.20833 12.7667 8.01666 12.4167 7.81666 12.0583C7.61666 11.7 7.41666 11.3417 7.21666 10.975H7.19999C7.02499 11.3333 6.83333 11.6917 6.64166 12.05C6.44999 12.4083 6.25833 12.7667 6.07499 13.1167C5.88333 13.4667 5.69166 13.825 5.49999 14.1667C5.46666 14.25 5.39999 14.2583 5.30833 14.2583H3.47499C3.44166 14.2583 3.41666 14.275 3.41666 14.2333C3.40833 14.2 3.41666 14.1667 3.43333 14.1417L6.02499 9.89167L3.49999 5.61667C3.47499 5.58333 3.46666 5.55 3.48333 5.53333C3.49999 5.50833 3.53333 5.5 3.56666 5.5H5.45833C5.49999 5.5 5.54166 5.50833 5.57499 5.51667C5.60833 5.53333 5.63333 5.55833 5.65833 5.59167C5.81666 5.95 5.99999 6.30833 6.19166 6.66667C6.39166 7.025 6.58333 7.375 6.79166 7.725C6.99166 8.075 7.17499 8.425 7.34999 8.78333H7.36666C7.54166 8.41667 7.72499 8.05833 7.90833 7.70833C8.09166 7.35833 8.28333 7.00833 8.47499 6.65833C8.66666 6.30833 8.84999 5.95 9.03333 5.60833C9.04166 5.575 9.05833 5.54167 9.08333 5.525C9.11666 5.50833 9.14999 5.5 9.19166 5.50833H10.95C10.9917 5.5 11.0333 5.525 11.0417 5.56667C11.05 5.575 11.0333 5.60833 11.0167 5.625Z" fill="#FF61F6"/>
<path d="M14.8667 14.4166C14.2501 14.425 13.6334 14.3 13.0751 14.0416C12.5501 13.8 12.1167 13.4 11.8167 12.9083C11.5084 12.4 11.3584 11.7666 11.3584 11.0083C11.3501 10.3916 11.5084 9.78331 11.8167 9.24998C12.1334 8.70831 12.5917 8.25831 13.1417 7.95831C13.7251 7.63331 14.4251 7.47498 15.2501 7.47498C15.2917 7.47498 15.3501 7.47498 15.4251 7.48331C15.5001 7.49164 15.5834 7.49164 15.6834 7.49998V4.86664C15.6834 4.80831 15.7084 4.77498 15.7667 4.77498H17.4584C17.5001 4.76664 17.5334 4.79998 17.5417 4.83331C17.5417 4.84164 17.5417 4.84998 17.5417 4.84998V12.7833C17.5417 12.9333 17.5501 13.1 17.5584 13.2833C17.5751 13.4583 17.5834 13.625 17.5917 13.7666C17.5917 13.825 17.5667 13.875 17.5084 13.9C17.0751 14.0833 16.6167 14.2166 16.1501 14.3C15.7251 14.375 15.3001 14.4166 14.8667 14.4166ZM15.6834 12.75V9.08331C15.6084 9.06664 15.5334 9.04998 15.4584 9.04164C15.3667 9.03331 15.2751 9.02498 15.1834 9.02498C14.8584 9.02498 14.5334 9.09164 14.2417 9.24164C13.9584 9.38331 13.7167 9.59164 13.5334 9.85831C13.3501 10.125 13.2584 10.4833 13.2584 10.9166C13.2501 11.2083 13.3001 11.5 13.4001 11.775C13.4834 12 13.6084 12.2 13.7751 12.3666C13.9334 12.5166 14.1251 12.6333 14.3417 12.7C14.5667 12.775 14.8001 12.8083 15.0334 12.8083C15.1584 12.8083 15.2751 12.8 15.3834 12.7916C15.4917 12.8 15.5834 12.7833 15.6834 12.75Z" fill="#FF61F6"/>
</g>
<defs>
<clipPath id="clip0_1_350">
<rect x="0.500061" y="0.5" width="20" height="19.5" fill="white"/>
</clipPath>
</defs>
</svg>
