<svg width="21" height="20" viewBox="0 0 21 20" fill="none" xmlns="http://www.w3.org/2000/svg">
<g clip-path="url(#clip0_1_225)">
<path d="M18.687 -0.000854492H2.31311C1.31178 -0.000854492 0.500061 0.810864 0.500061 1.81219V18.1861C0.500061 19.1874 1.31178 19.9991 2.31311 19.9991H18.687C19.6883 19.9991 20.5001 19.1874 20.5001 18.1861V1.81219C20.5001 0.810864 19.6883 -0.000854492 18.687 -0.000854492Z" fill="#DC395F"/>
<path d="M7.18397 6.29259C7.84882 6.29259 8.40577 5.7715 8.40577 5.08853C8.40577 4.40603 7.84882 3.88501 7.18397 3.88501C6.51913 3.88501 5.96233 4.40603 5.96233 5.08853C5.96233 5.77142 6.51913 6.29259 7.18397 6.29259ZM4.65069 12.7395C4.57889 13.0449 4.54288 13.3748 4.54288 13.6439C4.54288 14.7041 5.1178 15.4079 6.3396 15.4079C7.35288 15.4079 8.17436 14.8062 8.76585 13.8346L8.40468 15.284H10.4168L11.5668 10.6716C11.8543 9.50377 12.4112 8.8976 13.2558 8.8976C13.9205 8.8976 14.3337 9.31103 14.3337 9.99353C14.3337 10.1913 14.3158 10.4067 14.2439 10.6403L13.6509 12.7604C13.5611 13.0659 13.5253 13.3715 13.5253 13.6588C13.5253 14.6653 14.118 15.4014 15.3578 15.4014C16.4179 15.4014 17.2623 14.719 17.7294 13.0839L16.939 12.7788C16.5437 13.8742 16.2023 14.0722 15.9327 14.0722C15.6632 14.0722 15.5194 13.8927 15.5194 13.5335C15.5194 13.3718 15.5555 13.1924 15.6093 12.9763L16.1844 10.9108C16.328 10.4258 16.382 9.99572 16.382 9.60057C16.382 8.05541 15.4476 7.249 14.3158 7.249C13.2558 7.249 12.1776 8.20517 11.6387 9.2115L12.0339 7.40525H8.96171L8.53046 8.99619H9.96788L9.08272 12.5399C8.38764 14.0851 7.11085 14.1102 6.95061 14.0743C6.68749 14.0149 6.51921 13.915 6.51921 13.5732C6.51921 13.3759 6.55514 13.0925 6.64499 12.7509L7.99264 7.40525H4.57889L4.14764 8.99619H5.56694L4.65077 12.7395" fill="white"/>
</g>
<defs>
<clipPath id="clip0_1_225">
<rect x="0.500061" y="-0.000854492" width="20" height="20" fill="white"/>
</clipPath>
</defs>
</svg>
