<svg width="21" height="20" viewBox="0 0 21 20" fill="none" xmlns="http://www.w3.org/2000/svg">
<path d="M6.42688 9.23904C6.33511 9.11922 6.19961 9.04064 6.05004 9.02049C5.90047 9.00034 5.749 9.04026 5.6288 9.13152C5.55808 9.18729 5.50103 9.25848 5.46201 9.33966L0.561878 19.1427C0.492475 19.2816 0.481075 19.4424 0.530184 19.5897C0.579294 19.7371 0.684892 19.8589 0.82377 19.9284C0.904946 19.9694 0.994692 19.9907 1.08566 19.9904H7.91277C8.02212 19.9932 8.12991 19.964 8.22294 19.9065C8.31597 19.849 8.39021 19.7655 8.43655 19.6665C9.91004 16.623 9.01685 11.9958 6.42688 9.23904Z" fill="url(#paint0_linear_1_331)"/>
<path d="M10.0285 0.318096C8.80698 2.19786 8.09507 4.36289 7.96265 6.60078C7.83022 8.83867 8.28184 11.0726 9.27318 13.0833L12.5647 19.6664C12.6134 19.7637 12.6881 19.8455 12.7806 19.9027C12.8731 19.9599 12.9798 19.9903 13.0885 19.9903H19.9143C19.9912 19.9905 20.0675 19.9755 20.1387 19.9461C20.2098 19.9167 20.2745 19.8736 20.3289 19.8191C20.3833 19.7647 20.4265 19.7001 20.4559 19.6289C20.4852 19.5577 20.5003 19.4815 20.5001 19.4045C20.5001 19.3137 20.4794 19.2241 20.4394 19.1426L11.0251 0.31534C10.9804 0.220998 10.9099 0.141281 10.8217 0.0854577C10.7334 0.0296347 10.6312 0 10.5268 0C10.4224 0 10.3202 0.0296347 10.232 0.0854577C10.1438 0.141281 10.0732 0.220998 10.0285 0.31534V0.318096Z" fill="#2684FF"/>
<defs>
<linearGradient id="paint0_linear_1_331" x1="9.12436" y1="10.7373" x2="3.94993" y2="19.6995" gradientUnits="userSpaceOnUse">
<stop stop-color="#0052CC"/>
<stop offset="0.92" stop-color="#2684FF"/>
</linearGradient>
</defs>
</svg>
