<svg width="21" height="21" viewBox="0 0 21 21" fill="none" xmlns="http://www.w3.org/2000/svg">
<g clip-path="url(#clip0_1_243)">
<path d="M20.2594 9.91885L11.3967 0.989726L10.5379 0.124512L3.86619 6.84613L0.815383 9.91885C0.662997 10.0732 0.577454 10.282 0.577454 10.4997C0.577454 10.7174 0.662997 10.9262 0.815383 11.0805L6.91055 17.2213L10.5379 20.8748L17.2086 14.1532L17.3125 14.0495L20.2594 11.0851C20.3358 11.0088 20.3964 10.9179 20.4378 10.8178C20.4791 10.7177 20.5004 10.6104 20.5004 10.502C20.5004 10.3936 20.4791 10.2862 20.4378 10.1862C20.3964 10.0861 20.3358 9.99523 20.2594 9.91885V9.91885ZM10.5379 13.5678L7.49258 10.4997L10.5379 7.43159L13.5822 10.4997L10.5379 13.5678Z" fill="#2684FF"/>
<path d="M10.5375 7.43185C9.57978 6.46716 9.03988 5.15982 9.03575 3.7954C9.03161 2.43097 9.56358 1.12034 10.5155 0.14978L3.85205 6.86029L7.47844 10.5138L10.5375 7.43185Z" fill="url(#paint0_linear_1_243)"/>
<path d="M13.5902 10.4916L10.5375 13.568C11.4989 14.5368 12.039 15.8507 12.039 17.2206C12.039 18.5905 11.4989 19.9044 10.5375 20.8732L17.2193 14.1451L13.5902 10.4916Z" fill="url(#paint1_linear_1_243)"/>
</g>
<defs>
<linearGradient id="paint0_linear_1_243" x1="9.99228" y1="4.32764" x2="5.70802" y2="8.57914" gradientUnits="userSpaceOnUse">
<stop offset="0.18" stop-color="#0052CC"/>
<stop offset="1" stop-color="#2684FF"/>
</linearGradient>
<linearGradient id="paint1_linear_1_243" x1="776.604" y1="900.925" x2="1212.74" y2="1181.57" gradientUnits="userSpaceOnUse">
<stop offset="0.18" stop-color="#0052CC"/>
<stop offset="1" stop-color="#2684FF"/>
</linearGradient>
<clipPath id="clip0_1_243">
<rect x="0.500061" y="-0.000854492" width="20" height="21" fill="white"/>
</clipPath>
</defs>
</svg>
