<svg width="21" height="21" viewBox="0 0 21 21" fill="none" xmlns="http://www.w3.org/2000/svg">
<g clip-path="url(#clip0_1_278)">
<path d="M10.5001 0.5C4.97709 0.5 0.500122 4.97697 0.500122 10.5C0.500122 16.023 4.97709 20.5 10.5001 20.5C16.0232 20.5 20.5001 16.023 20.5001 10.5C20.5001 4.97765 16.0232 0.500682 10.5001 0.5ZM15.0863 14.9224C14.9068 15.2172 14.5226 15.3093 14.2292 15.1298C11.8812 13.6948 8.92523 13.3707 5.44451 14.1656C5.10879 14.2427 4.77443 14.0326 4.69801 13.6969C4.6209 13.3611 4.83038 13.0268 5.16679 12.9504C8.97573 12.0803 12.2436 12.455 14.8795 14.0653C15.1729 14.2462 15.2664 14.629 15.0863 14.9224V14.9224ZM16.3097 12.2004C16.0839 12.5676 15.6035 12.6822 15.2371 12.457C12.5499 10.805 8.45167 10.3267 5.27255 11.2915C4.86041 11.4164 4.42506 11.1837 4.29951 10.7723C4.17532 10.3601 4.408 9.92545 4.81947 9.7999C8.45099 8.69788 12.9662 9.23149 16.0525 11.1285C16.4196 11.3543 16.5356 11.834 16.3097 12.2004ZM16.4148 9.36455C13.1914 7.45053 7.8744 7.27448 4.79695 8.20795C4.30292 8.35807 3.78023 8.07898 3.63079 7.58495C3.48136 7.09092 3.75976 6.56824 4.25447 6.41812C7.78705 5.34613 13.6588 5.55288 17.3694 7.75554C17.8137 8.01962 17.9597 8.59348 17.6963 9.03702C17.4336 9.48192 16.8584 9.62862 16.4148 9.36455Z" fill="#2EBD59"/>
</g>
<defs>
<clipPath id="clip0_1_278">
<rect x="0.500122" y="0.5" width="20" height="20" fill="white"/>
</clipPath>
</defs>
</svg>
