<svg width="10" height="11" viewBox="0 0 10 11" fill="none" xmlns="http://www.w3.org/2000/svg">
<path d="M6.82273 1.85404C7.30578 1.85548 7.76865 2.04802 8.11022 2.38959C8.4518 2.73117 8.64433 3.19403 8.64577 3.67709V7.32279C8.64433 7.80585 8.4518 8.26871 8.11022 8.61028C7.76865 8.95186 7.30578 9.14439 6.82273 9.14583H3.17703C2.69397 9.14439 2.23111 8.95186 1.88953 8.61028C1.54796 8.26871 1.35542 7.80585 1.35398 7.32279V3.67709C1.35542 3.19403 1.54796 2.73117 1.88953 2.38959C2.23111 2.04802 2.69397 1.85548 3.17703 1.85404H6.82273ZM6.82273 1.12494H3.17703C1.77331 1.12494 0.624878 2.27338 0.624878 3.67709V7.32279C0.624878 8.7265 1.77331 9.87494 3.17703 9.87494H6.82273C8.22644 9.87494 9.37487 8.7265 9.37487 7.32279V3.67709C9.37487 2.27338 8.22644 1.12494 6.82273 1.12494Z" fill="white"/>
<path d="M7.36963 3.677C7.26147 3.677 7.15574 3.64493 7.0658 3.58484C6.97587 3.52475 6.90577 3.43933 6.86438 3.33941C6.82299 3.23948 6.81216 3.12952 6.83326 3.02344C6.85436 2.91735 6.90645 2.81991 6.98293 2.74343C7.05941 2.66695 7.15686 2.61486 7.26294 2.59376C7.36902 2.57266 7.47898 2.58349 7.57891 2.62488C7.67884 2.66627 7.76425 2.73637 7.82434 2.8263C7.88443 2.91623 7.9165 3.02197 7.9165 3.13013C7.91666 3.20199 7.90262 3.27317 7.87519 3.33959C7.84776 3.40601 7.80749 3.46636 7.75667 3.51717C7.70586 3.56798 7.64551 3.60826 7.57909 3.63569C7.51267 3.66312 7.44149 3.67716 7.36963 3.677Z" fill="white"/>
<path d="M4.99988 4.0413C5.28832 4.0413 5.57029 4.12683 5.81012 4.28708C6.04995 4.44733 6.23688 4.6751 6.34726 4.94159C6.45764 5.20808 6.48653 5.50131 6.43025 5.78421C6.37398 6.06711 6.23508 6.32698 6.03112 6.53094C5.82716 6.7349 5.5673 6.8738 5.2844 6.93007C5.0015 6.98634 4.70826 6.95746 4.44177 6.84708C4.17529 6.7367 3.94752 6.54977 3.78726 6.30994C3.62701 6.0701 3.54148 5.78814 3.54148 5.49969C3.54189 5.11303 3.69568 4.74232 3.96909 4.46891C4.2425 4.19549 4.61321 4.04171 4.99988 4.0413ZM4.99988 3.31219C4.56723 3.31219 4.1443 3.44049 3.78457 3.68085C3.42484 3.92122 3.14446 4.26286 2.97889 4.66257C2.81333 5.06229 2.77001 5.50212 2.85441 5.92645C2.93882 6.35079 3.14716 6.74056 3.45308 7.04649C3.75901 7.35242 4.14878 7.56076 4.57312 7.64516C4.99745 7.72957 5.43728 7.68625 5.837 7.52068C6.23671 7.35511 6.57835 7.07474 6.81872 6.715C7.05908 6.35527 7.18738 5.93234 7.18738 5.49969C7.18738 4.91953 6.95691 4.36313 6.54667 3.9529C6.13644 3.54266 5.58004 3.31219 4.99988 3.31219Z" fill="white"/>
</svg>
