<svg width="134" height="12" viewBox="0 0 134 12" fill="none" xmlns="http://www.w3.org/2000/svg">
<path d="M7.574 0.569999L4.858 9.054L2.142 0.569999H0.182L3.668 11H6.048L9.534 0.569999H7.574ZM13.1927 11H14.9567V0.569999H13.1927V11ZM23.1568 11.168C25.3688 11.168 26.8668 9.95 26.8668 8.144C26.8668 6.744 25.9848 5.82 24.2628 5.288L22.2888 4.686C21.4488 4.434 21.0008 3.958 21.0008 3.314C21.0008 2.516 21.7288 1.956 22.8208 1.956C24.0108 1.956 24.9068 2.586 25.2848 3.692L26.8108 2.992C26.2788 1.522 24.7808 0.402 22.8068 0.402C20.6788 0.402 19.2228 1.62 19.2228 3.398C19.2228 4.742 20.0628 5.778 21.7848 6.296L23.8288 6.926C24.6548 7.178 25.0888 7.556 25.0888 8.27C25.0888 9.04 24.3328 9.614 23.1568 9.614C21.9668 9.614 20.8888 8.9 20.3988 7.598L18.8868 8.284C19.4188 9.964 21.0988 11.168 23.1568 11.168ZM30.8518 11H32.6158V0.569999H30.8518V11ZM42.0899 11.168C45.1559 11.168 47.5079 8.872 47.5079 5.778C47.5079 2.684 45.1559 0.402 42.0899 0.402C39.0239 0.402 36.6859 2.684 36.6859 5.778C36.6859 8.872 39.0379 11.168 42.0899 11.168ZM42.0899 9.544C40.0039 9.544 38.4499 7.934 38.4499 5.778C38.4499 3.636 39.9899 2.026 42.0899 2.026C44.1899 2.026 45.7299 3.636 45.7299 5.778C45.7299 7.934 44.1899 9.544 42.0899 9.544ZM58.0832 0.569999V7.584L52.9872 0.569999H51.5872V11H53.3512V3.916L58.4472 11H59.8612V0.569999H58.0832ZM75.5743 0.569999V7.304C75.5743 8.634 74.6363 9.572 73.3063 9.572C71.9623 9.572 71.0243 8.648 71.0243 7.304V0.569999H69.2463V7.304C69.2463 9.544 70.8563 11.168 73.3063 11.168C75.7423 11.168 77.3663 9.544 77.3663 7.304V0.569999H75.5743ZM81.7741 11H83.5381V0.569999H81.7741V11ZM92.9391 11H94.7031V6.716H99.3791V5.176H94.7031V2.124H99.9111V0.569999H92.9391V11ZM103.772 11H105.536V7.108H107.692L109.89 11H111.906L109.498 6.8C110.688 6.324 111.43 5.288 111.43 3.846C111.43 1.774 109.932 0.569999 107.79 0.569999H103.772V11ZM105.536 5.568V2.124H107.79C108.896 2.124 109.638 2.81 109.638 3.846C109.638 4.882 108.896 5.568 107.79 5.568H105.536ZM115.821 11H122.709L122.723 9.446H117.585V6.548H122.443V4.994H117.585V2.124H122.723V0.569999H115.821V11ZM126.858 11H133.746L133.76 9.446H128.622V6.548H133.48V4.994H128.622V2.124H133.76V0.569999H126.858V11Z" fill="url(#paint0_linear_580_2634)"/>
<defs>
<linearGradient id="paint0_linear_580_2634" x1="103.279" y1="2" x2="124.185" y2="29.9291" gradientUnits="userSpaceOnUse">
<stop stop-color="white"/>
<stop offset="1" stop-color="#757A8C" stop-opacity="0"/>
</linearGradient>
</defs>
</svg>
