<svg width="16" height="16" viewBox="0 0 16 16" fill="none" xmlns="http://www.w3.org/2000/svg">
<path d="M10.2453 2.39175C9.67522 1.77622 8.87893 1.43726 8.00003 1.43726C7.11643 1.43726 6.31751 1.77417 5.75003 2.38589C5.1764 3.00435 4.8969 3.84487 4.96253 4.75249C5.09261 6.54311 6.4552 7.99975 8.00003 7.99975C9.54485 7.99975 10.9051 6.54341 11.0372 4.75307C11.1037 3.85366 10.8225 3.01489 10.2453 2.39175Z" fill="#0075FF"/>
<path d="M13.1563 14.5616H2.8438C2.70881 14.5634 2.57514 14.535 2.4525 14.4786C2.32985 14.4222 2.22133 14.3392 2.13481 14.2355C1.94438 14.0079 1.86762 13.6971 1.92446 13.3827C2.17173 12.011 2.9434 10.8588 4.15629 10.0499C5.23383 9.33183 6.59877 8.93661 8.00004 8.93661C9.40131 8.93661 10.7663 9.33212 11.8438 10.0499C13.0567 10.8585 13.8284 12.0107 14.0756 13.3824C14.1325 13.6968 14.0557 14.0076 13.8653 14.2352C13.7788 14.3389 13.6703 14.422 13.5476 14.4785C13.425 14.5349 13.2913 14.5633 13.1563 14.5616V14.5616Z" fill="#0075FF"/>
</svg>
