<svg width="18" height="19" viewBox="0 0 18 19" fill="none" xmlns="http://www.w3.org/2000/svg">
<path d="M8.99988 0.499939C4.03113 0.499939 -0.00012207 4.53119 -0.00012207 9.49994C-0.00012207 14.4687 4.03113 18.4999 8.99988 18.4999C13.9686 18.4999 17.9999 14.4687 17.9999 9.49994C17.9999 4.53119 13.9686 0.499939 8.99988 0.499939ZM8.71863 14.7499C8.53321 14.7499 8.35195 14.695 8.19778 14.5919C8.04361 14.4889 7.92345 14.3425 7.85249 14.1712C7.78153 13.9999 7.76297 13.8114 7.79914 13.6295C7.83531 13.4477 7.9246 13.2806 8.05571 13.1495C8.18683 13.0184 8.35387 12.9291 8.53573 12.893C8.71759 12.8568 8.90609 12.8753 9.07739 12.9463C9.2487 13.0173 9.39511 13.1374 9.49813 13.2916C9.60114 13.4458 9.65613 13.627 9.65613 13.8124C9.65613 14.0611 9.55735 14.2995 9.38154 14.4753C9.20572 14.6512 8.96727 14.7499 8.71863 14.7499V14.7499ZM10.2861 9.96869C9.52628 10.4787 9.42175 10.946 9.42175 11.3749C9.42175 11.549 9.35261 11.7159 9.22954 11.839C9.10647 11.962 8.93955 12.0312 8.7655 12.0312C8.59145 12.0312 8.42453 11.962 8.30146 11.839C8.17839 11.7159 8.10925 11.549 8.10925 11.3749C8.10925 10.3479 8.58175 9.53134 9.55394 8.87837C10.4577 8.27181 10.9686 7.88744 10.9686 7.04228C10.9686 6.46759 10.6405 6.03119 9.96128 5.70822C9.80144 5.63228 9.44566 5.55822 9.00785 5.56338C8.45847 5.57041 8.03191 5.70166 7.70331 5.96603C7.08363 6.46478 7.03113 7.00759 7.03113 7.01556C7.02697 7.10174 7.00588 7.18626 6.96906 7.26429C6.93225 7.34232 6.88042 7.41233 6.81654 7.47033C6.75267 7.52833 6.67799 7.57319 6.59678 7.60233C6.51557 7.63147 6.42942 7.64433 6.34324 7.64017C6.25706 7.63602 6.17254 7.61493 6.09451 7.57811C6.01648 7.54129 5.94647 7.48946 5.88846 7.42559C5.83046 7.36171 5.78561 7.28704 5.75647 7.20583C5.72733 7.12462 5.71447 7.03846 5.71863 6.95228C5.72378 6.83837 5.803 5.81228 6.87972 4.94603C7.438 4.49697 8.14816 4.26353 8.98909 4.25322C9.58441 4.24619 10.1436 4.34697 10.5228 4.52603C11.6577 5.06275 12.2811 5.95759 12.2811 7.04228C12.2811 8.62806 11.2213 9.34009 10.2861 9.96869Z" fill="#0075FF"/>
</svg>
