<svg width="11" height="11" viewBox="0 0 11 11" fill="none" xmlns="http://www.w3.org/2000/svg">
<path d="M5.49985 3.62512C5.12901 3.62512 4.7665 3.73509 4.45815 3.94112C4.14981 4.14714 3.90949 4.43998 3.76757 4.78259C3.62566 5.1252 3.58853 5.5022 3.66088 5.86591C3.73322 6.22963 3.9118 6.56372 4.17402 6.82595C4.43625 7.08817 4.77034 7.26675 5.13405 7.33909C5.49777 7.41144 5.87477 7.37431 6.21738 7.23239C6.55999 7.09048 6.85283 6.85016 7.05885 6.54181C7.26488 6.23347 7.37485 5.87096 7.37485 5.50012C7.37336 5.0033 7.17534 4.52724 6.82403 4.17593C6.47272 3.82463 5.99667 3.6266 5.49985 3.62512V3.62512ZM9.54797 5.50012C9.547 5.67532 9.53415 5.85025 9.50953 6.02371L10.6507 6.91715C10.7004 6.95819 10.7339 7.01557 10.7452 7.07903C10.7565 7.14248 10.7448 7.20789 10.7123 7.26356L9.63281 9.12731C9.6 9.18248 9.54878 9.22431 9.48816 9.24545C9.42754 9.26658 9.36141 9.26566 9.30141 9.24285L7.95961 8.70379C7.68021 8.91894 7.37445 9.0975 7.04977 9.23512L6.84914 10.6597C6.83792 10.7235 6.80488 10.7814 6.75567 10.8235C6.70647 10.8657 6.64415 10.8894 6.57938 10.8907H4.42032C4.35672 10.8895 4.29542 10.8667 4.24642 10.8262C4.19743 10.7856 4.16363 10.7296 4.15055 10.6674L3.94993 9.24285C3.62435 9.10683 3.31837 8.92799 3.04008 8.71106L1.69829 9.25012C1.63831 9.27295 1.5722 9.2739 1.51159 9.25281C1.45097 9.23172 1.39973 9.18994 1.36688 9.13481L0.28735 7.27129C0.254856 7.21563 0.243215 7.15022 0.254507 7.08676C0.265799 7.0233 0.299289 6.96593 0.348991 6.92489L1.49016 6.03145C1.46582 5.85536 1.45298 5.67788 1.45172 5.50012C1.4527 5.32492 1.46554 5.14999 1.49016 4.97653L0.348991 4.08309C0.299289 4.04205 0.265799 3.98467 0.254507 3.92121C0.243215 3.85776 0.254856 3.79235 0.28735 3.73668L1.36688 1.87293C1.3997 1.81776 1.45092 1.77593 1.51154 1.75479C1.57215 1.73366 1.63828 1.73458 1.69829 1.75739L3.04008 2.29645C3.31949 2.0813 3.62524 1.90274 3.94993 1.76512L4.15055 0.340591C4.16178 0.276782 4.19482 0.218853 4.24402 0.176703C4.29323 0.134553 4.35554 0.110798 4.42032 0.109497H6.57938C6.64298 0.110735 6.70428 0.133495 6.75327 0.174062C6.80227 0.214629 6.83606 0.270606 6.84914 0.332856L7.04977 1.75739C7.37576 1.89332 7.68213 2.07216 7.96078 2.28918L9.30141 1.75012C9.36139 1.72729 9.4275 1.72634 9.48811 1.74743C9.54872 1.76852 9.59996 1.8103 9.63281 1.86543L10.7123 3.72918C10.7448 3.78485 10.7565 3.85026 10.7452 3.91372C10.7339 3.97717 10.7004 4.03455 10.6507 4.07559L9.50953 4.96903C9.53386 5.14504 9.5467 5.32244 9.54797 5.50012V5.50012Z" fill="#718096"/>
</svg>
