<svg width="10" height="10" viewBox="0 0 10 10" fill="none" xmlns="http://www.w3.org/2000/svg">
<path d="M4.43623 3.28716C4.43623 3.56646 4.43623 3.83716 4.52432 4.09068C3.59834 5.17778 1.15342 8.05025 0.925684 8.26939C0.880422 8.31 0.844214 8.35968 0.819414 8.4152C0.794614 8.47072 0.781777 8.53084 0.781738 8.59165C0.781738 8.77427 0.893457 8.95044 0.987988 9.04927C1.12979 9.19751 1.73564 9.75825 1.84736 9.65083C2.17822 9.32857 2.24482 9.24263 2.38018 9.10943C2.58428 8.90962 2.35869 8.50142 2.42959 8.33599C2.50049 8.17056 2.57568 8.13833 2.69814 8.11255C2.82061 8.08677 3.0376 8.17485 3.20732 8.177C3.38564 8.17915 3.48232 8.10396 3.61553 7.97935C3.72295 7.88052 3.80029 7.78814 3.80244 7.64419C3.80674 7.45083 3.52744 7.19517 3.73584 6.99107C3.94424 6.78696 4.24502 7.12427 4.46631 7.09849C4.6876 7.07271 4.95615 6.76548 4.98408 6.63443C5.01201 6.50337 4.73271 6.16607 4.77568 5.97485C4.79072 5.9104 4.92178 5.76001 5.02061 5.73853C5.11943 5.71704 5.55771 5.88677 5.65654 5.86528C5.77685 5.8395 5.9165 5.71275 6.03037 5.64185C6.36338 5.78579 6.66631 5.8438 7.05518 5.8438C8.52685 5.8438 9.71924 4.69654 9.71924 3.28286C9.71924 1.86919 8.52685 0.726868 7.05518 0.726868C5.5835 0.726868 4.43623 1.87349 4.43623 3.28716ZM8.34424 2.78937C8.34424 2.92534 8.30392 3.05826 8.22837 3.17132C8.15283 3.28438 8.04546 3.3725 7.91983 3.42453C7.79421 3.47657 7.65597 3.49018 7.52261 3.46366C7.38925 3.43713 7.26675 3.37165 7.1706 3.2755C7.07445 3.17935 7.00898 3.05685 6.98245 2.92349C6.95592 2.79013 6.96954 2.6519 7.02157 2.52627C7.07361 2.40065 7.16172 2.29328 7.27478 2.21773C7.38784 2.14219 7.52076 2.10187 7.65674 2.10187C7.83907 2.10187 8.01394 2.1743 8.14287 2.30323C8.2718 2.43216 8.34424 2.60703 8.34424 2.78937Z" fill="white"/>
</svg>
