<svg width="10" height="10" viewBox="0 0 10 10" fill="none" xmlns="http://www.w3.org/2000/svg">
<path d="M4.75 0.725952C2.28596 0.725952 0.28125 2.73066 0.28125 5.1947C0.28125 7.65874 2.28596 9.66345 4.75 9.66345C7.21404 9.66345 9.21875 7.65874 9.21875 5.1947C9.21875 2.73066 7.21404 0.725952 4.75 0.725952ZM3.67105 3.23576C3.94326 2.94722 4.32633 2.78845 4.75 2.78845C5.17367 2.78845 5.5533 2.9483 5.82658 3.23833C6.10351 3.53224 6.23822 3.92712 6.20643 4.35165C6.14283 5.1947 5.48971 5.8822 4.75 5.8822C4.01029 5.8822 3.35588 5.1947 3.29357 4.35144C3.26199 3.92347 3.39648 3.5273 3.67105 3.23576ZM4.75 8.97595C4.24522 8.97628 3.74551 8.87525 3.2805 8.67884C2.8155 8.48243 2.39467 8.19465 2.04297 7.83255C2.2444 7.5453 2.50105 7.30106 2.79793 7.11412C3.34557 6.76306 4.03865 6.5697 4.75 6.5697C5.46135 6.5697 6.15443 6.76306 6.70143 7.11412C6.99855 7.30098 7.25543 7.54522 7.45703 7.83255C7.10536 8.19469 6.68454 8.4825 6.21953 8.67891C5.75451 8.87532 5.25479 8.97633 4.75 8.97595Z" fill="white"/>
</svg>
