<svg width="12" height="9" viewBox="0 0 12 9" fill="none" xmlns="http://www.w3.org/2000/svg">
<path d="M11.6247 1.06662C11.2027 1.24999 10.7562 1.37079 10.2994 1.42522C10.7795 1.14406 11.1406 0.697381 11.3149 0.168967C10.8609 0.434418 10.3651 0.620671 9.84866 0.719748C9.63118 0.491826 9.36963 0.310507 9.07989 0.186814C8.79016 0.0631204 8.4783 -0.000364657 8.16327 0.000217592C6.8878 0.000217592 5.85561 1.0174 5.85561 2.27131C5.85471 2.44572 5.87469 2.61962 5.91514 2.78928C5.00054 2.7464 4.10496 2.51309 3.28569 2.10426C2.46642 1.69543 1.74151 1.1201 1.15733 0.415061C0.95239 0.760558 0.844005 1.15476 0.843506 1.55647C0.843506 2.34397 1.25436 3.04006 1.87476 3.44787C1.50719 3.43915 1.14716 3.34186 0.825224 3.16428V3.1924C0.825224 4.29396 1.6221 5.21037 2.67679 5.41896C2.47845 5.47183 2.27408 5.49862 2.06882 5.49865C1.92317 5.4989 1.77786 5.48477 1.63499 5.45646C1.92819 6.35881 2.78155 7.01506 3.79241 7.03381C2.97102 7.66683 1.96256 8.00898 0.925537 8.00646C0.741463 8.00619 0.55756 7.99523 0.374756 7.97365C1.42972 8.64729 2.65603 9.00362 3.90772 9.00021C8.15835 9.00021 10.4805 5.53849 10.4805 2.53615C10.4805 2.43772 10.478 2.33928 10.4733 2.24318C10.924 1.92257 11.3139 1.52415 11.6247 1.06662Z" fill="white"/>
</svg>
