<svg width="25" height="9" viewBox="0 0 25 9" fill="none" xmlns="http://www.w3.org/2000/svg">
<path fill-rule="evenodd" clip-rule="evenodd" d="M12.6707 2.96349C12.6567 4.15054 13.6529 4.81297 14.4032 5.20683C15.1743 5.61098 15.4332 5.87013 15.4303 6.23146C15.4244 6.78458 14.8152 7.02861 14.2451 7.03811C13.2504 7.05474 12.6721 6.74889 12.2123 6.51752L11.8541 8.3234C12.3154 8.55246 13.1695 8.75216 14.0553 8.76087C16.1344 8.76087 17.4946 7.65542 17.502 5.94144C17.5101 3.76625 14.7086 3.64578 14.7277 2.67347C14.7343 2.3787 14.9955 2.06407 15.5679 1.98405C15.8511 1.94367 16.6331 1.91273 17.5196 2.35251L17.8676 0.605279C17.3909 0.418245 16.778 0.239128 16.0152 0.239128C14.0582 0.239128 12.6818 1.35962 12.6707 2.96349ZM21.2114 0.389679C20.8317 0.389679 20.5117 0.628238 20.369 0.994322L17.399 8.63248H19.4766L19.89 7.40182H22.4289L22.6687 8.63248H24.4999L22.9019 0.389679H21.2114ZM21.5019 2.6164L22.1015 5.71159H20.4595L21.5019 2.6164ZM10.1517 0.389679L8.51406 8.63248H10.4938L12.1307 0.389679H10.1517ZM7.22291 0.389679L5.16221 6.00003L4.32866 1.22965C4.23084 0.697179 3.8446 0.389679 3.41567 0.389679H0.046979L-0.00012207 0.629029C0.691452 0.790663 1.47717 1.05139 1.95314 1.33032C2.24445 1.50067 2.32762 1.64963 2.42323 2.05457L4.00201 8.63248H6.09438L9.30198 0.389679H7.22291Z" fill="white"/>
</svg>
